<?xml version="1.0" encoding="UTF-8"?>
<svg xmlns="http://www.w3.org/2000/svg" xmlns:xlink="http://www.w3.org/1999/xlink" width="24px" height="24px" viewBox="0 0 24 24" version="1.1">
  <path d="M 23.953125 14.402344 L 22.917969 8.539062 C 22.664062 7.085938 21.40625 6.035156 19.929688 6.035156 L 4.070312 6.035156 C 2.59375 6.035156 1.335938 7.085938 1.082031 8.539062 L 0.046875 14.402344 C -0.109375 15.289062 0.132812 16.195312 0.710938 16.882812 C 1.289062 17.570312 2.136719 17.964844 3.039062 17.964844 L 20.960938 17.964844 C 21.859375 17.964844 22.707031 17.570312 23.285156 16.882812 C 23.867188 16.191406 24.109375 15.289062 23.953125 14.402344 Z M 22.078125 15.867188 C 21.800781 16.199219 21.394531 16.390625 20.960938 16.390625 L 13.363281 16.390625 L 18.226562 13.757812 L 20.816406 13.351562 C 21.246094 13.28125 21.539062 12.878906 21.472656 12.449219 C 21.40625 12.019531 21 11.722656 20.570312 11.792969 L 13.140625 12.960938 C 12.707031 13.027344 12.414062 13.433594 12.484375 13.863281 C 12.550781 14.292969 12.953125 14.585938 13.382812 14.519531 L 13.558594 14.492188 L 10.050781 16.390625 L 3.039062 16.390625 C 2.605469 16.390625 2.195312 16.199219 1.917969 15.867188 C 1.640625 15.539062 1.523438 15.105469 1.597656 14.675781 L 2.632812 8.8125 C 2.757812 8.117188 3.359375 7.609375 4.070312 7.609375 L 11.210938 7.609375 L 11.210938 8.292969 L 10.304688 8.292969 C 9.867188 8.292969 9.515625 8.644531 9.515625 9.082031 C 9.515625 9.515625 9.867188 9.871094 10.304688 9.871094 L 13.773438 9.871094 C 14.207031 9.871094 14.5625 9.515625 14.5625 9.082031 C 14.5625 8.644531 14.207031 8.292969 13.773438 8.292969 L 12.789062 8.292969 L 12.789062 7.609375 L 19.929688 7.609375 C 20.640625 7.609375 21.242188 8.117188 21.367188 8.8125 L 22.402344 14.675781 C 22.476562 15.101562 22.359375 15.535156 22.078125 15.867188 Z M 22.078125 15.867188 " />
</svg>
