<?xml version="1.0" encoding="UTF-8"?>
<svg xmlns="http://www.w3.org/2000/svg" xmlns:xlink="http://www.w3.org/1999/xlink" width="24px" height="24px" viewBox="0 0 24 24" version="1.1">
  <path d="M 23.417969 9.074219 L 21.539062 7.863281 L 14.285156 10.441406 L 12.929688 9.636719 L 9.5 9.636719 L 9.5 9.191406 L 10.972656 9.191406 L 10.972656 7.972656 L 6.808594 7.972656 L 6.808594 9.191406 L 8.28125 9.191406 L 8.28125 9.636719 L 4.449219 9.636719 L 1.925781 8.183594 L 0 10.191406 L 4.089844 15.488281 L 4.128906 15.457031 L 4.128906 16.136719 L 12.976562 16.136719 L 21.5 9.289062 L 22.757812 10.097656 Z M 1.605469 10.277344 L 2.144531 9.714844 L 4.128906 10.859375 L 4.128906 13.542969 Z M 12.546875 14.917969 L 5.347656 14.917969 L 5.347656 10.855469 L 12.597656 10.855469 L 14.15625 11.78125 L 18.273438 10.316406 Z M 24 12.628906 C 24 13.132812 23.589844 13.542969 23.085938 13.542969 C 22.582031 13.542969 22.171875 13.132812 22.171875 12.628906 C 22.171875 12.121094 23.085938 10.519531 23.085938 10.519531 C 23.085938 10.519531 24 12.125 24 12.628906 Z M 24 12.628906 " />
</svg>
